<?xml version="1.0" encoding="UTF-8"?>
<svg xmlns="http://www.w3.org/2000/svg" xmlns:xlink="http://www.w3.org/1999/xlink" viewBox="0 0 24 24" width="24px" height="24px">
<g id="surface71461440">
<path style=" stroke:none;fill-rule:nonzero;fill:rgb(23.529412%,72.156864%,42.352942%);fill-opacity:1;" d="M 12 1.535156 C 11.605469 1.535156 11.210938 1.640625 10.859375 1.847656 L 4.109375 5.816406 C 3.425781 6.21875 3 6.964844 3 7.757812 L 3 16.507812 C 3 17.332031 3.449219 18.089844 4.171875 18.484375 L 6.382812 19.691406 C 6.722656 19.875 7.09375 19.964844 7.460938 19.964844 C 7.859375 19.964844 8.25 19.859375 8.605469 19.648438 C 9.296875 19.238281 9.707031 18.515625 9.707031 17.714844 L 9.707031 8.199219 L 8.207031 8.199219 L 8.207031 17.714844 C 8.207031 18.097656 7.953125 18.292969 7.84375 18.359375 C 7.734375 18.421875 7.4375 18.554688 7.101562 18.371094 L 4.894531 17.167969 C 4.652344 17.035156 4.5 16.785156 4.5 16.507812 L 4.5 7.757812 C 4.5 7.492188 4.640625 7.246094 4.871094 7.109375 L 11.621094 3.136719 C 11.851562 3 12.148438 3 12.378906 3.136719 L 19.128906 7.109375 C 19.355469 7.246094 19.5 7.492188 19.5 7.757812 L 19.5 16.515625 C 19.5 16.785156 19.351562 17.039062 19.109375 17.175781 L 12.359375 20.851562 C 12.136719 20.96875 11.863281 20.96875 11.640625 20.851562 L 10.320312 20.128906 C 10.066406 20.445312 9.75 20.714844 9.375 20.941406 C 9.253906 21.015625 9.132812 21.074219 9.015625 21.121094 L 10.917969 22.167969 C 11.265625 22.347656 11.625 22.441406 12 22.441406 C 12.375 22.441406 12.734375 22.347656 13.082031 22.167969 L 19.832031 18.480469 C 20.550781 18.089844 21 17.339844 21 16.515625 L 21 7.757812 C 21 6.964844 20.578125 6.21875 19.894531 5.820312 L 13.144531 1.847656 C 12.789062 1.640625 12.394531 1.535156 12 1.535156 Z M 14.175781 7.976562 C 11.808594 7.976562 10.605469 8.804688 10.605469 10.433594 C 10.605469 12.277344 12.730469 12.550781 13.753906 12.683594 C 13.898438 12.703125 14.03125 12.71875 14.132812 12.738281 L 14.582031 12.816406 C 16.140625 13.078125 16.5 13.253906 16.5 13.757812 C 16.5 14 16.5 14.738281 14.175781 14.738281 C 12.207031 14.738281 11.804688 14.152344 11.804688 13.273438 L 10.304688 13.273438 C 10.304688 14.628906 10.976562 16.238281 14.175781 16.238281 C 17.335938 16.238281 18 14.890625 18 13.757812 C 18 11.871094 16.167969 11.5625 14.832031 11.335938 L 14.398438 11.261719 C 14.273438 11.238281 14.117188 11.21875 13.941406 11.199219 C 12.988281 11.074219 12.105469 10.898438 12.105469 10.4375 C 12.105469 10.101562 12.105469 9.480469 14.175781 9.476562 C 15.554688 9.476562 16.257812 9.929688 16.257812 10.824219 L 17.757812 10.824219 C 17.757812 9.449219 16.8125 7.976562 14.175781 7.976562 Z M 14.175781 7.976562 "/>
</g>
</svg>
